<svg width="134" height="169" viewBox="0 0 134 169" fill="none" xmlns="http://www.w3.org/2000/svg">
<path d="M92.7341 57.3836L107.657 23.9798C107.657 23.9798 111.353 13.864 115.019 15.9957C117.963 17.7072 116.265 24.6262 116.265 24.6262C116.265 24.6262 113.85 30.7953 111.751 34.4646C109.497 38.4055 108.3 41.1157 105.493 44.684C102.165 48.9158 97.3448 53.3342 92.7341 57.3836ZM92.7341 57.3836L74.915 94.8507M92.7341 57.3836C83.2191 65.7404 73.8911 72.3124 73.8911 72.3124C73.8911 72.3124 53.2961 89.2819 37.9055 89.2124C34.0369 89.1949 31.5813 89.6724 28.0671 88.0549C24.3787 86.3572 22.3742 83.335 20.9857 79.5194C19.2308 74.6972 18.4663 71.767 19.5107 65.9099C20.5552 60.0528 22.6722 54.5568 26.2083 47.5664C29.7444 40.5759 51.5635 18.8389 51.5635 18.8389C51.5635 18.8389 69.5063 6.19145 82.7965 4.96163C87.3467 4.54058 90.2539 3.46803 94.4959 5.16689L94.5756 5.19879C98.4001 6.73022 100.2 5.81952 101.038 9.86066C101.68 12.9562 81.0646 40.609 81.0646 40.609M74.915 94.8507L69.8459 105.823C69.8459 105.823 58.1417 132.08 47.0953 146.581C42.4008 152.743 40.9232 157.854 34.1476 161.609C34.1476 161.609 19.4918 167.588 12.3676 162.914C5.72275 158.554 4.4631 144.161 4.4631 144.161C3.62664 135.518 5.21034 130.133 9.9646 122.867C14.662 115.688 18.9823 113.163 26.2865 108.662C36.521 102.357 55.4187 98.7205 55.4187 98.7205C55.4187 98.7205 64.6718 97.4622 74.915 94.8507ZM74.915 94.8507C81.1572 93.2592 87.767 91.1653 92.8745 88.5473C106.076 81.7807 130.71 55.5528 130.71 55.5528" stroke="black" stroke-width="8.5"/>
</svg>
