<svg width="123" height="163" viewBox="0 0 123 163" fill="none" xmlns="http://www.w3.org/2000/svg">
<path d="M69.12 93.312C53.312 96.064 42.176 98.72 35.712 101.28C29.312 103.84 23.872 107.424 19.392 112.032C14.912 116.64 11.776 121.408 9.984 126.336C8.192 131.328 7.296 136.576 7.296 142.08C7.296 154.496 11.584 160.704 20.16 160.704C29.696 160.704 37.568 155.264 43.776 144.384C50.88 132.16 59.328 115.136 69.12 93.312ZM98.88 15.36L99.072 12.096C99.072 9.536 98.144 7.168 96.288 4.992C94.432 2.816 91.84 1.728 88.512 1.728C82.944 1.728 75.776 4.256 67.008 9.312C58.24 14.304 50.432 20.224 43.584 27.072C38.016 32.512 33.152 39.2 28.992 47.136C24.832 55.072 22.72 62.208 22.656 68.544C22.656 73.472 23.84 77.408 26.208 80.352C28.64 83.232 32 84.672 36.288 84.672C40.512 84.672 46.016 82.944 52.8 79.488C63.936 73.728 74.816 65.92 85.44 56.064C87.68 53.824 91.328 48.288 96.384 39.456C101.504 30.624 105.856 22.208 109.44 14.208C110.336 12.032 111.104 10.944 111.744 10.944C112.448 10.944 113.792 11.52 115.776 12.672C117.824 13.824 118.848 14.912 118.848 15.936C118.848 18.048 117.664 21.248 115.296 25.536C112.928 29.824 110.144 33.792 106.944 37.44C104.32 40.512 102.24 43.488 100.704 46.368C99.168 49.184 97.632 52.064 96.096 55.008C94.624 57.952 93.696 59.776 93.312 60.48L78.144 89.664C90.432 86.144 101.696 80 111.936 71.232C116.224 67.456 119.36 64.064 121.344 61.056C121.6 60.672 121.856 60.48 122.112 60.48C122.368 60.48 122.496 60.576 122.496 60.768C122.496 60.96 122.432 61.184 122.304 61.44C118.848 66.048 115.392 69.856 111.936 72.864C108.544 75.872 104.576 78.72 100.032 81.408C91.84 86.144 84.16 89.536 76.992 91.584C76.16 93.248 73.568 98.688 69.216 107.904C64.864 117.184 60.928 124.864 57.408 130.944C52.032 139.52 48.288 144.96 46.176 147.264C44.064 149.632 41.984 151.776 39.936 153.696C37.888 155.616 35.904 157.152 33.984 158.304C29.312 161.056 24.64 162.432 19.968 162.432C13.952 162.432 9.12 160.256 5.472 155.904C1.824 151.552 0 146.048 0 139.392C0.064 134.464 1.248 129.728 3.552 125.184C5.792 120.64 8.832 116.672 12.672 113.28C20.416 106.368 28.992 101.376 38.4 98.304C44.16 96.384 54.656 94.08 69.888 91.392C74.24 82.304 79.68 71.744 86.208 59.712C81.664 63.488 76.832 67.2 71.712 70.848C66.592 74.496 60.416 78.112 53.184 81.696C46.016 85.216 39.84 86.976 34.656 86.976C29.472 86.976 24.8 85.312 20.64 81.984C16.48 78.592 14.4 73.792 14.4 67.584C14.4 62.72 15.488 57.504 17.664 51.936C23.808 36.32 36.512 22.688 55.776 11.04C68 3.68 79.68 0 90.816 0C93.312 0 96.192 0.607998 99.456 1.824C102.784 2.976 104.448 4.60801 104.448 6.72001C104.448 7.16801 104.128 7.904 103.488 8.928C102.848 9.952 102.4 10.752 102.144 11.328C101.888 11.84 101.632 12.544 101.376 13.44C100.8 15.104 100.352 15.936 100.032 15.936C99.264 15.936 98.88 15.744 98.88 15.36Z" fill="white"/>
</svg>
