<svg width="110" height="87" viewBox="0 0 110 87" fill="none" xmlns="http://www.w3.org/2000/svg">
<path d="M59.904 80.448C59.136 82.432 58.016 83.872 56.544 84.768C55.136 85.728 53.824 86.208 52.608 86.208C50.048 86.208 48.768 83.136 48.768 76.992L49.152 10.944C49.152 8.76799 49.12 7.456 49.056 7.008C48.992 6.56 48.832 6.336 48.576 6.336C47.808 6.336 46.848 7.488 45.696 9.792L8.448 80.448C7.68 81.984 6.464 83.136 4.8 83.904C3.392 84.608 2.432 85.28 1.92 85.92C1.408 86.624 0.96 86.976 0.576 86.976C0.192 86.976 0 86.848 0 86.592C0 86.336 0.192 85.76 0.576 84.864C5.568 73.792 8.064 66.176 8.064 62.016C8.064 57.792 7.552 55.68 6.528 55.68C6.208 55.68 5.76 55.84 5.184 56.16C4.672 56.48 4.288 56.64 4.032 56.64C3.776 56.64 3.648 56.448 3.648 56.064L6.72 54.144C7.04 53.952 7.424 53.696 7.872 53.376C8.768 52.736 9.472 52.416 9.984 52.416C10.496 52.416 11.2 52.736 12.096 53.376C13.888 54.656 14.784 56.896 14.784 60.096L44.352 5.76C45.12 4.16 46.304 2.848 47.904 1.824C49.568 0.735996 51.584 0.191994 53.952 0.191994C56.128 0.191994 57.216 2.112 57.216 5.952L56.64 76.8C58.752 71.552 64.768 59.296 74.688 40.032C84.608 20.704 91.008 9.66399 93.888 6.91199C97.344 3.45599 100.16 1.34399 102.336 0.575996C103.296 0.191998 104.288 0 105.312 0C106.4 0 107.424 0.256001 108.384 0.767998C109.344 1.216 109.824 1.696 109.824 2.208C109.824 2.72 109.344 3.39199 108.384 4.22399C107.424 5.11999 106.464 6.016 105.504 6.91199C103.392 8.76799 102.304 9.664 102.24 9.6C101.92 9.6 101.76 9.40799 101.76 9.02399C101.76 8.64 101.536 8.256 101.088 7.87199C100.64 7.488 100.096 7.296 99.456 7.296C97.6 7.296 95.936 8.38399 94.464 10.56C89.408 17.92 83.04 29.696 75.36 45.888C67.744 62.016 62.592 73.536 59.904 80.448Z" fill="white"/>
</svg>
